<svg width="24" height="24" viewBox="0 0 24 24" fill="none" xmlns="http://www.w3.org/2000/svg">
<path d="M19.7143 3.42859L4.28572 3.42859C3.60374 3.42859 2.94968 3.69951 2.46745 4.18174C1.98521 4.66398 1.71429 5.31803 1.71429 6.00002L1.71429 18C1.71429 18.682 1.98521 19.3361 2.46745 19.8183C2.94968 20.3005 3.60374 20.5714 4.28572 20.5714L19.7143 20.5714C20.3963 20.5714 21.0503 20.3005 21.5326 19.8183C22.0148 19.3361 22.2857 18.682 22.2857 18L22.2857 6.00002C22.2857 5.31803 22.0148 4.66398 21.5326 4.18174C21.0503 3.69951 20.3963 3.42859 19.7143 3.42859ZM19.4572 7.54287L12.6 13.5429C12.4133 13.6391 12.2094 13.6974 12 13.7143C11.7906 13.6974 11.5867 13.6391 11.4 13.5429L4.54287 7.54287C4.37237 7.39511 4.26756 7.18567 4.25148 6.96063C4.23541 6.73558 4.30939 6.51337 4.45715 6.34287C4.60492 6.17238 4.81436 6.06756 5.0394 6.05149C5.26444 6.03541 5.48666 6.1094 5.65715 6.25716L11.9143 11.7429L18.1714 6.25716C18.2548 6.18176 18.3525 6.124 18.4588 6.08736C18.565 6.05072 18.6776 6.03597 18.7897 6.04397C18.9018 6.05198 19.0112 6.08259 19.1111 6.13396C19.2111 6.18533 19.2997 6.25639 19.3714 6.34287C19.4664 6.40856 19.5454 6.49473 19.6026 6.59502C19.6598 6.6953 19.6938 6.80716 19.702 6.92232C19.7102 7.03749 19.6925 7.15303 19.6501 7.26044C19.6078 7.36784 19.5418 7.46436 19.4572 7.54287Z" fill="#00529E"/>
</svg>
