<svg width="24" height="24" viewBox="0 0 24 24" fill="none" xmlns="http://www.w3.org/2000/svg">
<path d="M21.6 12.0001C21.5997 10.1656 21.0738 8.36951 20.0844 6.82459C19.0951 5.27966 17.6838 4.05056 16.0177 3.28278C14.3515 2.51501 12.5003 2.24071 10.6831 2.49237C8.86587 2.74403 7.15883 3.51111 5.76404 4.70279C4.36924 5.89447 3.34511 7.46086 2.81288 9.2165C2.28065 10.9721 2.2626 12.8435 2.76089 14.6091C3.25918 16.3747 4.25292 17.9605 5.62448 19.1789C6.99605 20.3972 8.68798 21.1971 10.5 21.4837L10.5 14.7751H8.06279V12.0001H10.5V9.88511C10.5 7.47911 11.9334 6.15011 14.1258 6.15011C14.8458 6.16009 15.5641 6.22266 16.275 6.33731V8.70011H15.0642C14.8579 8.6727 14.648 8.69208 14.4502 8.75681C14.2524 8.82153 14.0717 8.92994 13.9214 9.074C13.7712 9.21806 13.6553 9.39408 13.5824 9.58902C13.5094 9.78396 13.4813 9.99281 13.5 10.2001V12.0001H16.1628L15.7368 14.7751H13.5L13.5 21.4837C15.7583 21.1265 17.8149 19.975 19.2998 18.2364C20.7847 16.4979 21.6004 14.2865 21.6 12.0001Z" fill="#2E6FE8"/>
</svg>
