<svg width="24" height="24" viewBox="0 0 24 24" fill="none" xmlns="http://www.w3.org/2000/svg">
<path d="M9.4286 11.9999C7.06203 11.9999 5.14288 9.22366 5.14288 6.85709V5.99995C5.14288 3.63338 7.06203 1.71423 9.4286 1.71423C11.7952 1.71423 13.7143 3.63338 13.7143 5.99995V6.85709C13.7143 9.22366 11.7952 11.9999 9.4286 11.9999Z" fill="#00529E"/>
<path d="M12 15.2717C12 14.8011 12.0523 14.3562 12.1466 13.9354C11.3014 13.8017 10.3886 13.7142 9.42858 13.7142C7.00801 13.7142 4.86087 14.2611 3.45087 14.7368C2.40858 15.0891 1.71429 16.0705 1.71429 17.1702L1.71429 20.5714L14.4994 20.5714C13.296 19.1099 12 17.1094 12 15.2717Z" fill="#00529E"/>
<path d="M18 11.1428C15.8932 11.1428 13.7143 12.6874 13.7143 15.2717C13.7143 17.5997 17.0306 20.8311 17.4086 21.192L18 21.756L18.5914 21.1911C18.9694 20.8303 22.2857 17.5988 22.2857 15.2708C22.2857 12.6874 20.1069 11.1428 18 11.1428ZM18 17.1428C17.0529 17.1428 16.2857 16.3748 16.2857 15.4285C16.2857 14.4814 17.0529 13.7143 18 13.7143C18.9472 13.7143 19.7143 14.4814 19.7143 15.4285C19.7143 16.3748 18.9472 17.1428 18 17.1428Z" fill="#00529E"/>
</svg>
