<svg width="28" height="28" viewBox="0 0 28 28" fill="none" xmlns="http://www.w3.org/2000/svg">
<path d="M19.7619 3.43652L8.23808 3.43652C7.60753 3.43652 6.98315 3.56072 6.40059 3.80202C5.81804 4.04332 5.28871 4.39701 4.84285 4.84288C3.94237 5.74335 3.43649 6.96465 3.43649 8.23811L3.43649 19.7619C3.43649 20.3925 3.56069 21.0169 3.80199 21.5994C4.04329 22.182 4.39698 22.7113 4.84285 23.1572C5.74332 24.0576 6.96462 24.5635 8.23808 24.5635L19.7619 24.5635C20.3924 24.5635 21.0168 24.4393 21.5994 24.198C22.1819 23.9567 22.7113 23.603 23.1571 23.1572C23.603 22.7113 23.9567 22.182 24.198 21.5994C24.4393 21.0169 24.5635 20.3925 24.5635 19.7619L24.5635 8.23811C24.5635 7.60756 24.4393 6.98318 24.198 6.40062C23.9567 5.81807 23.603 5.28874 23.1571 4.84288C22.7113 4.39701 22.1819 4.04332 21.5994 3.80202C21.0168 3.56072 20.3924 3.43652 19.7619 3.43652ZM7.27776 8.23811C7.08783 8.23811 6.90216 8.18179 6.74424 8.07627C6.58632 7.97075 6.46323 7.82077 6.39054 7.64529C6.31786 7.46982 6.29884 7.27673 6.3359 7.09044C6.37295 6.90416 6.46441 6.73305 6.59872 6.59875C6.73302 6.46444 6.90413 6.37298 7.09041 6.33593C7.2767 6.29887 7.46979 6.31789 7.64526 6.39058C7.82073 6.46326 7.97072 6.58635 8.07624 6.74427C8.18176 6.90219 8.23808 7.08786 8.23808 7.27779C8.23808 7.53249 8.1369 7.77675 7.95681 7.95684C7.77671 8.13693 7.53245 8.23811 7.27776 8.23811ZM14 19.7619C12.8604 19.7619 11.7464 19.424 10.7988 18.7909C9.8513 18.1577 9.11278 17.2579 8.67668 16.205C8.24057 15.1522 8.12647 13.9936 8.34879 12.8759C8.57112 11.7582 9.11989 10.7316 9.9257 9.92573C10.7315 9.11992 11.7582 8.57115 12.8759 8.34882C13.9936 8.1265 15.1521 8.2406 16.205 8.67671C17.2578 9.11281 18.1577 9.85133 18.7908 10.7989C19.424 11.7464 19.7619 12.8604 19.7619 14C19.7619 15.5282 19.1548 16.9937 18.0743 18.0743C16.9937 19.1549 15.5281 19.7619 14 19.7619Z" fill="#9095A1"/>
</svg>
