<svg width="28" height="28" viewBox="0 0 28 28" fill="none" xmlns="http://www.w3.org/2000/svg">
<path d="M22.7389 3.91663L5.2611 3.91663C4.90453 3.91663 4.56257 4.05827 4.31044 4.3104C4.0583 4.56254 3.91666 4.9045 3.91666 5.26107L3.91666 22.7388C3.91666 23.0954 4.0583 23.4374 4.31044 23.6895C4.56257 23.9416 4.90453 24.0833 5.2611 24.0833L22.7389 24.0833C23.0954 24.0833 23.4374 23.9416 23.6895 23.6895C23.9417 23.4374 24.0833 23.0954 24.0833 22.7388L24.0833 5.26107C24.0833 4.9045 23.9417 4.56254 23.6895 4.3104C23.4374 4.05827 23.0954 3.91663 22.7389 3.91663ZM9.8907 21.1215L6.85696 21.1215L6.85696 11.4791L9.8907 11.4791L9.8907 21.1215ZM8.37349 10.1555C8.02472 10.1545 7.68409 10.0501 7.39461 9.85552C7.10513 9.66098 6.8798 9.38502 6.74707 9.0625C6.61433 8.73997 6.58016 8.38534 6.64885 8.0434C6.71754 7.70146 6.88602 7.38754 7.13302 7.1413C7.38001 6.89506 7.69444 6.72753 8.03659 6.65988C8.37874 6.59222 8.73326 6.62748 9.05538 6.7612C9.3775 6.89491 9.65278 7.12108 9.84644 7.41115C10.0401 7.70122 10.1434 8.04217 10.1435 8.39094C10.1435 8.62314 10.0978 8.85308 10.0088 9.06756C9.91982 9.28204 9.78936 9.47684 9.62491 9.64079C9.46047 9.80473 9.26527 9.9346 9.05052 10.0229C8.83577 10.1113 8.6057 10.1563 8.37349 10.1555ZM21.1397 21.1215H18.1678V16.4576C18.1678 15.3236 18.1678 13.9368 16.588 13.9368C15.0083 13.9368 14.8181 15.1347 14.8181 16.3944L14.8181 21.1847L11.8489 21.1847L11.8489 11.4791L14.6292 11.4791V12.8027H14.6924C14.9791 12.307 15.3952 11.8985 15.8962 11.6209C16.3972 11.3434 16.9642 11.2072 17.5366 11.227C20.5703 11.227 21.139 13.2437 21.139 15.8277L21.1397 21.1215Z" fill="#9095A1"/>
</svg>
