<svg width="20" height="20" viewBox="0 0 20 20" fill="none" xmlns="http://www.w3.org/2000/svg">
<path d="M15.505 5.20926C15.371 5.07535 15.1894 5.00012 15 5.00012C14.8106 5.00012 14.6289 5.07535 14.495 5.20926L10 9.70426L5.505 5.20926C5.37105 5.07535 5.1894 5.00012 5 5.00012C4.81059 5.00012 4.62894 5.07535 4.495 5.20926L2.35214 7.35211C2.21823 7.48606 2.14301 7.66771 2.14301 7.85711C2.14301 8.04652 2.21823 8.22816 2.35214 8.36211L9.495 15.505C9.62894 15.6389 9.81059 15.7141 10 15.7141C10.1894 15.7141 10.371 15.6389 10.505 15.505L17.6479 8.36211C17.7818 8.22816 17.857 8.04652 17.857 7.85711C17.857 7.66771 17.7818 7.48606 17.6479 7.35211L15.505 5.20926Z" fill="#171A1F"/>
</svg>
