<svg width="21" height="20" viewBox="0 0 21 20" fill="none" xmlns="http://www.w3.org/2000/svg">
<path d="M12.6559 11.5633L11.1266 13.0719C10.3291 12.591 9.58826 12.022 8.91803 11.3754C8.27249 10.7041 7.70353 9.96312 7.2216 9.16615L8.72875 7.63687C8.82003 7.54417 8.88167 7.42642 8.90584 7.29859C8.93001 7.17076 8.9156 7.03863 8.86446 6.91901L7.29303 3.25615C7.23095 3.11172 7.11905 2.9944 6.97771 2.92557C6.83638 2.85674 6.67502 2.84097 6.52303 2.88115L3.6416 3.64329C3.49771 3.6806 3.37074 3.76564 3.28146 3.88449C3.19219 4.00335 3.1459 4.14899 3.15017 4.29758C3.33351 7.64885 4.72692 10.8197 7.0716 13.2212C9.47351 15.5666 12.6452 16.9603 15.9973 17.1433C16.146 17.1483 16.292 17.1024 16.4111 17.0132C16.5302 16.9239 16.6153 16.7967 16.6523 16.6526L17.4137 13.7697C17.4541 13.6178 17.4385 13.4565 17.3698 13.3151C17.3011 13.1737 17.1839 13.0618 17.0395 12.9997L13.3759 11.429C13.2562 11.3771 13.1236 11.3622 12.9954 11.3861C12.8671 11.41 12.7489 11.4717 12.6559 11.5633Z" stroke="white" stroke-width="1.71429" stroke-miterlimit="10" stroke-linecap="square"/>
</svg>
