<svg width="24" height="24" viewBox="0 0 24 24" fill="none" xmlns="http://www.w3.org/2000/svg">
<path d="M15.1191 14.0631L13.1005 16.0526C12.0482 15.4177 11.0706 14.6664 10.1863 13.8128C9.33434 12.9273 8.58345 11.9499 7.9474 10.8986L9.93512 8.87999C10.0545 8.75793 10.1351 8.60329 10.1668 8.43552C10.1986 8.26776 10.18 8.09436 10.1134 7.93714L8.04169 3.09771C7.96001 2.90758 7.81287 2.75304 7.62698 2.66214C7.44109 2.57124 7.22876 2.55 7.02855 2.60228L3.2194 3.60771C3.02908 3.65657 2.86113 3.76892 2.74331 3.92617C2.62548 4.08343 2.56484 4.27618 2.5714 4.47256C2.81345 8.8959 4.65276 13.081 7.74769 16.2506C10.9179 19.3467 15.1044 21.1867 19.5291 21.4286C19.7255 21.4347 19.9182 21.3739 20.0755 21.2562C20.2328 21.1384 20.3454 20.9707 20.3948 20.7806L21.3994 16.9748C21.4527 16.7743 21.432 16.5612 21.3412 16.3746C21.2504 16.1879 21.0955 16.0402 20.9048 15.9583L16.0697 13.8857C15.9116 13.8172 15.7367 13.7975 15.5673 13.8292C15.3979 13.8608 15.2419 13.9422 15.1191 14.0631Z" fill="#00529E"/>
</svg>
