<svg width="19" height="19" viewBox="0 0 19 19" fill="none" xmlns="http://www.w3.org/2000/svg">
<g clip-path="url(#clip0_166_31)">
<path d="M10.7784 3.71283C10.4833 3.42211 10.0085 3.42563 9.7178 3.72068C9.42702 4.01574 9.43055 4.4906 9.7256 4.78131L13.7534 8.74985H3.5C3.08578 8.74985 2.75 9.08562 2.75 9.49985C2.75 9.91407 3.08579 10.2498 3.5 10.2498H13.7485L9.7256 14.2135C9.43055 14.5042 9.42702 14.9791 9.7178 15.2742C10.0085 15.5692 10.4833 15.5727 10.7784 15.282L15.9715 10.1652C16.3442 9.79805 16.3442 9.19685 15.9715 8.82965L10.7784 3.71283Z" fill="#171A1F"/>
</g>
<defs>
<clipPath id="clip0_166_31">
<rect width="18" height="18" fill="white" transform="translate(0.5 0.5)"/>
</clipPath>
</defs>
</svg>
