<svg width="28" height="28" viewBox="0 0 28 28" fill="none" xmlns="http://www.w3.org/2000/svg">
<path d="M24.45 7.53409C23.6662 7.86065 22.8825 8.1219 21.9681 8.18721C22.8825 7.66471 23.5356 6.81565 23.8622 5.83596C23.0131 6.35846 22.0987 6.68502 21.1191 6.88096C20.3353 6.0319 19.225 5.5094 18.0494 5.5094C15.6981 5.5094 13.7387 7.40346 13.7387 9.82002C13.7387 10.1466 13.8041 10.4731 13.8694 10.7997C10.2772 10.6038 7.14218 8.90565 4.98687 6.29315C4.59499 6.94627 4.39906 7.66471 4.39906 8.44846C4.39906 9.95065 5.1828 11.2569 6.29312 12.0406C5.57468 12.0406 4.92156 11.8447 4.33374 11.5181V11.5835C4.33374 13.6735 5.83593 15.3716 7.79531 15.7635C7.40343 15.8288 7.07687 15.8941 6.68499 15.8941C6.42374 15.8941 6.16249 15.8941 5.90124 15.8288C6.42374 17.5269 8.05656 18.7678 9.88531 18.8331C8.44843 20.0088 6.55437 20.6619 4.52968 20.6619C4.20312 20.6619 3.81124 20.6619 3.48468 20.5966C5.44406 21.7722 7.72999 22.4906 10.1466 22.4906C18.0494 22.4906 22.36 15.9594 22.36 10.2772C22.36 10.0813 22.36 9.88534 22.36 9.75471C23.1437 9.10159 23.8622 8.38315 24.45 7.53409Z" fill="#9095A1"/>
</svg>
